<svg id="visual" viewBox="0 0 1920 1080" width="1920" height="1080" xmlns="http://www.w3.org/2000/svg" xmlns:xlink="http://www.w3.org/1999/xlink" version="1.1"><g><g transform="translate(540 826)"><path d="M0 -208.1L180.2 -104.1L180.2 104.1L0 208.1L-180.2 104.1L-180.2 -104.1Z" fill="#FFF"></path></g><g transform="translate(1047 550)"><path d="M0 -127L110 -63.5L110 63.5L0 127L-110 63.5L-110 -63.5Z" fill="#FFF"></path></g><g transform="translate(674 321)"><path d="M0 -124L107.4 -62L107.4 62L0 124L-107.4 62L-107.4 -62Z" fill="#FFF"></path></g><g transform="translate(257 305)"><path d="M0 -82L71 -41L71 41L0 82L-71 41L-71 -41Z" fill="#FFF"></path></g><g transform="translate(1691 663)"><path d="M0 -202L174.9 -101L174.9 101L0 202L-174.9 101L-174.9 -101Z" fill="#FFF"></path></g><g transform="translate(1486 252)"><path d="M0 -70L60.6 -35L60.6 35L0 70L-60.6 35L-60.6 -35Z" fill="#FFF"></path></g></g></svg>