<svg id="visual" viewBox="0 0 900 600" width="900" height="600" xmlns="http://www.w3.org/2000/svg" xmlns:xlink="http://www.w3.org/1999/xlink" version="1.1"><rect x="0" y="0" width="900" height="600" fill="#383F57"></rect><defs><linearGradient id="grad1_0" x1="33.3%" y1="0%" x2="100%" y2="100%"><stop offset="20%" stop-color="#383f57" stop-opacity="1"></stop><stop offset="80%" stop-color="#383f57" stop-opacity="1"></stop></linearGradient></defs><defs><linearGradient id="grad2_0" x1="0%" y1="0%" x2="66.7%" y2="100%"><stop offset="20%" stop-color="#383f57" stop-opacity="1"></stop><stop offset="80%" stop-color="#383f57" stop-opacity="1"></stop></linearGradient></defs><g transform="translate(900, 0)"><path d="M0 351.5C-50.7 351 -101.4 350.5 -134.5 324.8C-167.6 299.1 -183.1 248.3 -215 215C-246.8 181.6 -295.1 165.7 -320.6 132.8C-346.1 99.9 -348.8 49.9 -351.5 0L0 0Z" fill="#5870A1"></path></g><g transform="translate(0, 600)"><path d="M0 -351.5C46.1 -339.2 92.3 -326.9 125.1 -302.1C158 -277.3 177.6 -240.1 212.8 -212.8C248.1 -185.6 299.1 -168.3 324.8 -134.5C350.5 -100.7 351 -50.4 351.5 0L0 0Z" fill="#5870A1"></path></g></svg>