<svg id="visual" viewBox="0 0 900 600" width="900" height="600" xmlns="http://www.w3.org/2000/svg" xmlns:xlink="http://www.w3.org/1999/xlink" version="1.1"><rect x="0" y="0" width="900" height="600" fill="#383F57"></rect><defs><linearGradient id="grad1_0" x1="33.3%" y1="0%" x2="100%" y2="100%"><stop offset="20%" stop-color="#383f57" stop-opacity="1"></stop><stop offset="80%" stop-color="#383f57" stop-opacity="1"></stop></linearGradient></defs><defs><linearGradient id="grad2_0" x1="0%" y1="0%" x2="66.7%" y2="100%"><stop offset="20%" stop-color="#383f57" stop-opacity="1"></stop><stop offset="80%" stop-color="#383f57" stop-opacity="1"></stop></linearGradient></defs><g transform="translate(900, 0)"><path d="M0 297.5C-42 296.4 -83.9 295.4 -113.8 274.8C-143.8 254.2 -161.6 214 -183.8 183.8C-206.1 153.7 -232.6 133.4 -252.2 104.5C-271.9 75.5 -284.7 37.7 -297.5 0L0 0Z" fill="#5870A1"></path></g><g transform="translate(0, 600)"><path d="M0 -297.5C38.5 -292.9 76.9 -288.4 113.8 -274.8C150.8 -261.3 186.2 -238.7 208.6 -208.6C231 -178.5 240.5 -140.9 253.1 -104.9C265.8 -68.8 281.6 -34.4 297.5 0L0 0Z" fill="#5870A1"></path></g></svg>