<svg id="visual" viewBox="0 0 900 600" width="900" height="600" xmlns="http://www.w3.org/2000/svg" xmlns:xlink="http://www.w3.org/1999/xlink" version="1.1"><path d="M728 600L629 480L692 360L737 240L620 120L683 0L900 0L900 120L900 240L900 360L900 480L900 600Z" fill="#ffffff"></path><path d="M278 600L260 480L350 360L350 240L296 120L359 0L684 0L621 120L738 240L693 360L630 480L729 600Z" fill="#eaeffb"></path><path d="M0 600L0 480L0 360L0 240L0 120L0 0L360 0L297 120L351 240L351 360L261 480L279 600Z" fill="#d5e0f6"></path></svg>