<svg id="visual" viewBox="0 0 900 600" width="900" height="600" xmlns="http://www.w3.org/2000/svg" xmlns:xlink="http://www.w3.org/1999/xlink" version="1.1"><rect x="0" y="0" width="900" height="600" fill="#e2eaf9"></rect><path d="M335 600L338 590C341 580 347 560 338.3 540C329.7 520 306.3 500 294 480C281.7 460 280.3 440 334.3 420C388.3 400 497.7 380 507.7 360C517.7 340 428.3 320 406.2 300C384 280 429 260 475.7 240C522.3 220 570.7 200 593 180C615.3 160 611.7 140 603.8 120C596 100 584 80 539.2 60C494.3 40 416.7 20 377.8 10L339 0L900 0L900 10C900 20 900 40 900 60C900 80 900 100 900 120C900 140 900 160 900 180C900 200 900 220 900 240C900 260 900 280 900 300C900 320 900 340 900 360C900 380 900 400 900 420C900 440 900 460 900 480C900 500 900 520 900 540C900 560 900 580 900 590L900 600Z" fill="#e2eaf9"></path><path d="M529 600L521.3 590C513.7 580 498.3 560 508.7 540C519 520 555 500 581.3 480C607.7 460 624.3 440 605.7 420C587 400 533 380 519.3 360C505.7 340 532.3 320 552.7 300C573 280 587 260 584.3 240C581.7 220 562.3 200 547.5 180C532.7 160 522.3 140 506.7 120C491 100 470 80 479.7 60C489.3 40 529.7 20 549.8 10L570 0L900 0L900 10C900 20 900 40 900 60C900 80 900 100 900 120C900 140 900 160 900 180C900 200 900 220 900 240C900 260 900 280 900 300C900 320 900 340 900 360C900 380 900 400 900 420C900 440 900 460 900 480C900 500 900 520 900 540C900 560 900 580 900 590L900 600Z" fill="#ecf1fb"></path><path d="M682 600L659 590C636 580 590 560 595.2 540C600.3 520 656.7 500 672.7 480C688.7 460 664.3 440 658.8 420C653.3 400 666.7 380 674.5 360C682.3 340 684.7 320 663.3 300C642 280 597 260 590.5 240C584 220 616 200 614.8 180C613.7 160 579.3 140 576 120C572.7 100 600.3 80 619 60C637.7 40 647.3 20 652.2 10L657 0L900 0L900 10C900 20 900 40 900 60C900 80 900 100 900 120C900 140 900 160 900 180C900 200 900 220 900 240C900 260 900 280 900 300C900 320 900 340 900 360C900 380 900 400 900 420C900 440 900 460 900 480C900 500 900 520 900 540C900 560 900 580 900 590L900 600Z" fill="#f6f8fd"></path><path d="M747 600L731.7 590C716.3 580 685.7 560 680.7 540C675.7 520 696.3 500 705 480C713.7 460 710.3 440 713.8 420C717.3 400 727.7 380 735.8 360C744 340 750 320 740.7 300C731.3 280 706.7 260 692.8 240C679 220 676 200 693.2 180C710.3 160 747.7 140 749.3 120C751 100 717 80 708.2 60C699.3 40 715.7 20 723.8 10L732 0L900 0L900 10C900 20 900 40 900 60C900 80 900 100 900 120C900 140 900 160 900 180C900 200 900 220 900 240C900 260 900 280 900 300C900 320 900 340 900 360C900 380 900 400 900 420C900 440 900 460 900 480C900 500 900 520 900 540C900 560 900 580 900 590L900 600Z" fill="#ffffff"></path></svg>